<svg xmlns="http://www.w3.org/2000/svg" style="display: currentColor;">
  <defs>
    <symbol id="home" width="30" height="30" fill="currentColor" viewBox="0 0 30 30">
      <path fill="currentColor" d="M1.875 11.25v16.875h9.375v-7.5a3.75 3.75 0 1 1 7.5 0v7.5h9.375V11.25L15 0 1.875 11.25Z"/>
    </symbol>
    <symbol id="calendar" width="30" height="30" fill="currentColor" viewBox="0 0 30 30">
      <g clip-path="url(#a)">
        <path fill="currentColor" d="M28.125 2.81h-7.507V.94a.937.937 0 1 0-1.875 0v1.87h-7.5V.94a.937.937 0 1 0-1.875 0v1.868H1.875A1.877 1.877 0 0 0 0 4.684V28.12c0 1.036.84 1.875 1.875 1.875h26.25c1.035 0 1.875-.84 1.875-1.875V4.684c0-1.035-.84-1.875-1.875-1.875Zm0 25.311H1.875V4.684h7.493v.944a.937.937 0 1 0 1.875 0v-.944h7.5v.945a.937.937 0 1 0 1.875 0v-.945h7.507v23.437Zm-6.563-13.124h1.875c.518 0 .938-.42.938-.938v-1.875a.938.938 0 0 0-.938-.937h-1.875a.938.938 0 0 0-.937.937v1.875c0 .518.42.938.938.938Zm0 7.5h1.875c.518 0 .938-.42.938-.938v-1.875a.938.938 0 0 0-.938-.938h-1.875a.938.938 0 0 0-.937.938v1.875c0 .518.42.937.938.937Zm-5.625-3.75h-1.874a.938.938 0 0 0-.938.937v1.875c0 .518.42.937.938.937h1.874c.518 0 .938-.42.938-.937v-1.875a.938.938 0 0 0-.938-.938Zm0-7.5h-1.874a.938.938 0 0 0-.938.937v1.875c0 .518.42.938.938.938h1.874c.518 0 .938-.42.938-.938v-1.875a.938.938 0 0 0-.938-.937Zm-7.5 0H6.563a.938.938 0 0 0-.938.937v1.875c0 .518.42.938.938.938h1.875c.517 0 .937-.42.937-.938v-1.875a.938.938 0 0 0-.938-.937Zm0 7.5H6.563a.938.938 0 0 0-.938.937v1.875c0 .518.42.937.938.937h1.875c.517 0 .937-.42.937-.937v-1.875a.938.938 0 0 0-.938-.938Z"/>
      </g>
      <defs>
        <clipPath id="a">
          <path fill="currentColor" d="M0 0h30v30H0z"/>
        </clipPath>
      </defs>
    </symbol>
    <symbol id="food" width="30" height="30" fill="currentColor" viewBox="0 0 30 30">
      <path fill="currentColor" d="M19.313 12c.187.188.468.281.656.281.187 0 .468-.094.656-.281l5.063-5.063a.906.906 0 0 0 0-1.312.906.906 0 0 0-1.313 0l-5.063 5.063a.906.906 0 0 0 0 1.312Z"/>
      <path fill="currentColor" d="M28.219 9.469a.906.906 0 0 0 0-1.313.906.906 0 0 0-1.313 0l-4.593 4.594c-1.22 1.219-2.344 1.875-3.47 1.875-.187 0-.468 0-.655.094l-1.594-1.594c0-.188.093-.469.093-.656.094-1.031.75-2.25 1.875-3.469l4.594-4.594a.906.906 0 0 0 0-1.312.906.906 0 0 0-1.312 0L17.25 7.688c-1.219 1.218-1.969 2.53-2.344 3.75L6.75 3.28a.906.906 0 0 0-1.313 0C2.72 6 2.72 10.5 5.438 13.312l7.782 7.782c.281.281.656.375 1.031.187 1.031-.468 2.25-.187 3 .75l3.844 4.782c.562.75 1.406 1.125 2.343 1.218h.188c.844 0 1.688-.375 2.344-.937.656-.657.937-1.407.937-2.344 0-.938-.375-1.688-.937-2.344l-6.094-6.093c1.219-.282 2.531-1.032 3.75-2.344l4.594-4.5ZM4.406 22.688C3.75 23.25 3.281 24 3.188 24.843c-.094.843.28 1.687.843 2.343.563.657 1.313.938 2.157.938h.187c.844-.094 1.688-.469 2.156-1.125L12 22.687l-3.375-3.375-4.219 3.375Z"/>
    </symbol>
    <symbol id="beer" width="30" height="30" fill="currentColor" viewBox="0 0 30 30">
      <path fill="currentColor" d="M6.35 25.132c0 .657.533 1.193 1.19 1.193h8.18c.657 0 1.192-.536 1.192-1.193v-9.277H6.35v9.277Z"/>
      <path fill="currentColor" d="M27.122 12.607a5.172 5.172 0 0 0-3.695-1.52 5.664 5.664 0 0 0-1.634.246 4.698 4.698 0 0 0 .751-2.55c0-1.79-.986-3.347-2.445-4.156A6.307 6.307 0 0 0 11 .772 4.47 4.47 0 0 0 8.625.098a4.543 4.543 0 0 0-4.431 3.555A4.475 4.475 0 0 0 1.357 7.82c0 1.244.503 2.366 1.312 3.175v14.139A4.867 4.867 0 0 0 7.542 30h8.181a4.866 4.866 0 0 0 4.866-4.866v-2.102c.234.024.466.036.705.036 1.545 0 3.144-.46 4.499-1.403a6.672 6.672 0 0 0 1.765-1.777 6.464 6.464 0 0 0 .999-2.5 6.38 6.38 0 0 0 .086-1.018c0-1.47-.57-2.807-1.52-3.763ZM18.75 25.134a3.034 3.034 0 0 1-3.027 3.027H7.542a3.035 3.035 0 0 1-3.034-3.027V12.276H18.75v12.858Zm1.435-14.697H5.39a2.595 2.595 0 0 1-1.415-.735 2.635 2.635 0 0 1-.779-1.882c0-1.25.87-2.298 2.035-2.58l.643-.153.056-.662a2.706 2.706 0 0 1 2.696-2.488c.668 0 1.27.238 1.74.637l.54.454.576-.399a4.4 4.4 0 0 1 2.537-.79 4.47 4.47 0 0 1 4.382 3.597l.099.479.44.189a2.91 2.91 0 0 1 1.245 4.333Zm5.95 6.54a3.846 3.846 0 0 1-.612 1.544c-.442.662-1.091 1.189-1.845 1.55a5.543 5.543 0 0 1-2.384.546c-.245 0-.478-.012-.705-.049v-5.774c.264-.239.521-.434.773-.6.753-.478 1.446-.656 2.065-.656.791 0 1.465.3 1.955.797.497.496.81 1.19.81 2.035 0 .196-.02.398-.056.607Z"/>
    </symbol>
    <symbol id="return" width="30" height="30" fill="currentColor" viewBox="0 0 30 30">
      <g clip-path="url(#a)">
        <path fill="currentColor" d="M6.25 13.75V15c0 4.825 3.925 8.75 8.75 8.75s8.75-3.925 8.75-8.75S19.825 6.25 15 6.25h-2.5V2.5l-5 5 5 5V8.75H15A6.257 6.257 0 0 1 21.25 15 6.257 6.257 0 0 1 15 21.25 6.257 6.257 0 0 1 8.75 15v-1.25h-2.5Z"/>
      </g>
      <defs>
        <clipPath id="a">
          <path fill="currentColor" d="M0 0h30v30H0z"/>
        </clipPath>
      </defs>
    </symbol>
    <symbol id="back" width="30" height="30" fill="currentColor" viewBox="0 0 30 30">
      <path fill="currentColor" d="M6.563 14.063h18.75a.938.938 0 0 1 0 1.874H6.563a.938.938 0 0 1 0-1.874Z"/>
      <path fill="currentColor" d="m6.95 15 7.776 7.774A.939.939 0 0 1 13.4 24.1l-8.44-8.436a.936.936 0 0 1 0-1.328L13.4 5.9a.939.939 0 1 1 1.327 1.327L6.951 15Z"/>
    </symbol>
    <symbol id="arrow" width="30" height="30" fill="none" viewBox="0 0 30 30">
      <path stroke="currentColor" stroke-linecap="round" stroke-linejoin="round" stroke-width="2" d="M8.75 12.5 15 18.75l6.25-6.25"/>
    </symbol>
    <symbol id="questionMark" width="30" height="30" fill="currentColor" viewBox="0 0 30 30">
      <path fill="currentColor" d="M21.295 8.926c.009.646-.07 1.29-.235 1.915a6.75 6.75 0 0 1-.614 1.513c-.243.431-.525.84-.842 1.22-.308.368-.61.717-.897 1.04l-.038.04a23.64 23.64 0 0 0-.738.815 5.68 5.68 0 0 0-.632.895 4.48 4.48 0 0 0-.433 1.07c-.11.442-.162.897-.156 1.354v.079a1.626 1.626 0 0 1-3.25 0v-.08a8.567 8.567 0 0 1 .264-2.186c.17-.645.42-1.266.749-1.847.286-.5.619-.97.994-1.406.25-.29.53-.6.83-.914.261-.295.536-.616.82-.952.19-.228.359-.474.504-.732a3.56 3.56 0 0 0 .31-.782c.085-.34.124-.691.115-1.042a2.985 2.985 0 0 0-.232-1.203 3.028 3.028 0 0 0-1.636-1.66 2.776 2.776 0 0 0-1.142-.227 2.879 2.879 0 0 0-1.178.23 3.096 3.096 0 0 0-1.673 1.677 2.894 2.894 0 0 0-.23 1.18v.044a1.626 1.626 0 1 1-3.25 0v-.044A6.13 6.13 0 0 1 9.2 6.459a6.343 6.343 0 0 1 3.37-3.377 6.104 6.104 0 0 1 2.465-.496 5.988 5.988 0 0 1 2.437.496 6.276 6.276 0 0 1 3.334 3.376c.33.78.495 1.62.488 2.468Zm-4.323 15.49a2.11 2.11 0 0 1 0 1.63 2.113 2.113 0 0 1-1.12 1.121l-.009.005a2.018 2.018 0 0 1-.797.163 2.113 2.113 0 0 1-2.093-2.503c.08-.409.28-.784.577-1.077a2.204 2.204 0 0 1 1.516-.612c.274 0 .545.055.797.162l.008.005c.249.106.476.256.671.444.193.188.346.412.45.66v.001Z"/>
    </symbol>
    <symbol id="smileBeer" width="29" height="24" fill="none" viewBox="0 0 29 24">
      <g clip-path="url(#a)">
        <path fill="#fff" d="M4.282 4.071v15.5c0 .713-.171 1.44 0 2.14.417 1.7 4.536 2.067 7.557 2.116 3.021-.05 7.11-.49 7.557-2.117.191-.695 0-1.426 0-2.139V4.186c0-.089-.004-.417-.443-.46"/>
        <path fill="#FFDA71" d="M6.818 20.968c1.409.486 3.537.67 4.624.67 2.498 0 6.772-.372 6.772-1.7 0-2.204.015-8.611.021-12.593l-.023.01c-1.545.644-3.44 1.013-6.427 1.013-2.03 0-4.656-.183-6.349-.872v12.31c0 .503.572.883 1.382 1.162Z"/>
        <path fill="#fff" d="M19.455 19.636c.274-.207.376-.42.726-.523.251-.075.51-.129.774-.161a5.04 5.04 0 0 0 2.49-1.017c1.153-1.142 1.497-2.703 1.582-4.335.083-1.591.035-3.22-.692-4.695-.23-.467-.664-.939-1.2-1.18-.519-.234-1.142-.212-1.729-.269-.586-.057-1.544-.47-1.951-1.32l-.033 3.835c.262-.57 1.058-1.13 1.59-1.25.268-.059.547-.071.821-.036.274.035.535.116.769.24.135.069.254.157.351.26.468.533.631 2.077.668 2.772.064 1.236-.144 2.422-.453 3.676-.162.656-.558 1.334-1.257 1.67-.429.207-.94.25-1.436.273-.203.02-.41.002-.602-.054-.18-.064-.393-.21-.45-.364l.032 2.478Z"/>
        <path fill="#211715" d="M4.073 4.071V18.22c0 .5.012 1.003-.003 1.505-.015.485-.092.97-.07 1.457.016.333.066.67.252.97.139.216.328.407.556.562.541.377 1.217.602 1.888.765.812.188 1.642.317 2.48.385.842.078 1.689.117 2.535.133.863.006 1.726-.036 2.582-.125.85-.07 1.69-.199 2.515-.384.687-.16 1.386-.378 1.957-.742a2.28 2.28 0 0 0 .61-.542c.203-.274.275-.589.303-.907.043-.48-.036-.96-.064-1.438-.028-.492-.008-.988-.008-1.48V5.15c0-.337.02-.678-.002-1.014-.019-.293-.229-.536-.595-.58a.257.257 0 0 0-.158.02.19.19 0 0 0-.1.102.149.149 0 0 0 .02.131.21.21 0 0 0 .127.082.483.483 0 0 1 .195.056.16.16 0 0 1 .077.108l.015.06c-.008-.041 0 .016.001.027.003.057.001.116.001.174v14.141c0 .485-.019.974.013 1.458.03.466.103.933.058 1.4-.028.295-.097.535-.286.766-.31.38-.877.647-1.413.83-.738.237-1.506.405-2.289.501a26.59 26.59 0 0 1-2.534.215c-.814.03-1.63.02-2.442-.028-.83-.04-1.656-.125-2.473-.252-.72-.117-1.45-.273-2.106-.553a3.187 3.187 0 0 1-.733-.416 1.492 1.492 0 0 1-.348-.37.99.99 0 0 1-.078-.137c-.158-.355-.152-.756-.134-1.13.023-.477.07-.95.07-1.429V4.071c0-.223-.419-.223-.419 0Z"/>
        <path fill="#211715" d="M18.029 4.82a12077.681 12077.681 0 0 1-.01 6.538l-.008 4.022-.005 3.381v1.155c0 .022 0 .043-.002.065l-.004.03c-.004.044.01-.038 0 .004a.855.855 0 0 1-.043.13c-.018.044.012-.015-.014.026-.014.022-.027.044-.043.065l-.042.054a1.1 1.1 0 0 1-.163.146 1.96 1.96 0 0 1-.123.084c-.118.069-.241.13-.37.186a5.694 5.694 0 0 1-.923.29c-.374.09-.754.162-1.137.217a23.71 23.71 0 0 1-2.456.223c-.667.035-1.335.036-2.002.006-.7-.037-1.396-.113-2.083-.227-.683-.113-1.392-.266-1.994-.516a3.72 3.72 0 0 1-.388-.186 1.582 1.582 0 0 1-.342-.245l-.033-.03c0-.002-.035-.037-.014-.015.02.02-.012-.014-.013-.015l-.027-.032a.904.904 0 0 1-.05-.067l-.034-.058c-.023-.039.015.035-.003-.005-.004-.008-.008-.016-.01-.024a.714.714 0 0 1-.045-.146c.01.05-.001-.02-.002-.03-.002-.038-.001-.075-.001-.111V6.764c0-.223-.419-.223-.419 0v12.79c-.01.16 0 .319.032.476.068.21.207.401.4.55.461.374 1.108.58 1.712.737.734.181 1.486.31 2.246.384.629.071 1.263.108 1.898.11a28.496 28.496 0 0 0 2.42-.11 16.797 16.797 0 0 0 2.457-.37c.593-.143 1.259-.338 1.69-.723a.958.958 0 0 0 .336-.584c.014-.173.016-.347.007-.52 0-1.02.002-2.038.004-3.058a10626.227 10626.227 0 0 1 .015-7.983l.004-3.124v-.518c0-.223-.418-.223-.418 0Z"/>
        <path fill="#211715" d="M5.401 7.674c.798.311 1.66.494 2.527.618.933.13 1.875.208 2.82.233 1.79.056 3.627.005 5.373-.352a12.02 12.02 0 0 0 2.197-.67c.24-.1.029-.398-.211-.298-1.293.537-2.733.805-4.179.915-.943.068-1.89.09-2.837.068a26.234 26.234 0 0 1-2.7-.183c-.946-.118-1.909-.29-2.779-.63a.255.255 0 0 0-.158-.016.217.217 0 0 0-.128.078.149.149 0 0 0-.021.131.182.182 0 0 0 .096.106Zm13.852-1.492c.24.497.673.913 1.232 1.182.216.106.45.185.694.234.322.061.66.06.988.087.357.019.703.108 1.008.262.293.167.54.384.723.635.191.266.34.55.446.847.122.317.22.64.294.966.14.66.21 1.33.209 2 .01.658-.02 1.317-.091 1.973-.13 1.152-.457 2.335-1.302 3.28-.22.228-.485.422-.785.574-.289.16-.6.291-.928.39-.352.105-.712.144-1.076.208-.376.066-.753.155-1.023.393-.113.1-.214.207-.335.3-.197.153.1.398.296.246.125-.096.228-.208.345-.31a.949.949 0 0 1 .402-.2c.377-.102.77-.129 1.15-.212a5.337 5.337 0 0 0 1.931-.861c.266-.203.49-.44.666-.702.183-.254.34-.52.47-.797.262-.569.44-1.161.53-1.766.101-.648.155-1.3.164-1.954a11.81 11.81 0 0 0-.106-2.042 7.006 7.006 0 0 0-.581-1.98c-.269-.564-.734-1.126-1.415-1.394-.359-.14-.749-.185-1.14-.213-.192-.014-.384-.026-.576-.041l-.017-.002-.038-.005-.068-.01a2.286 2.286 0 0 1-.164-.036c-.518-.138-.965-.416-1.27-.79a1.89 1.89 0 0 1-.23-.354.19.19 0 0 0-.099-.103.256.256 0 0 0-.158-.018.209.209 0 0 0-.126.081.148.148 0 0 0-.02.132Z"/>
        <path fill="#211715" d="M19.624 10.018c.182-.385.577-.72.988-.945.19-.11.405-.183.632-.217.272-.036.55-.02.814.049.265.067.555.19.725.379.089.104.156.22.201.343.143.362.242.734.296 1.113.145.846.179 1.703.102 2.555a13.586 13.586 0 0 1-.27 1.665c-.104.479-.196.97-.465 1.41-.277.45-.702.806-1.304.937a5.207 5.207 0 0 1-.983.1 1.02 1.02 0 0 1-.464-.069.546.546 0 0 1-.272-.226.188.188 0 0 0-.1-.103.255.255 0 0 0-.157-.018.21.21 0 0 0-.126.082.149.149 0 0 0-.02.13.885.885 0 0 0 .27.323c.12.089.262.154.416.19.319.076.69.034 1.016.003.345-.025.682-.1.996-.222a2.22 2.22 0 0 0 .69-.456c.377-.383.635-.838.75-1.323.158-.603.282-1.214.37-1.827.144-.99.142-1.99-.003-2.979a6.164 6.164 0 0 0-.291-1.26 1.986 1.986 0 0 0-.25-.49 1.56 1.56 0 0 0-.681-.481c-.561-.225-1.246-.261-1.817-.04-.527.215-.97.55-1.277.965a1.836 1.836 0 0 0-.19.32.148.148 0 0 0 .02.13.21.21 0 0 0 .127.082c.053.012.11.005.158-.017a.188.188 0 0 0 .099-.104Z"/>
        <path fill="#fff" d="M3.943 4.342c0 .45.121.807.272 1.01.187.255.93.835 2.364.947.968.076 1.744.048 2.752-.45.881-.434 1.598-1.007 2.51-.99 3.838.077 6.92-.632 7.043-1.254.31-1.556-.92-3.431-7.05-3.431-2.029 0-4.6.268-6.205 1.437-1.548 1.127-1.686 2.077-1.686 2.731Z"/>
        <path fill="#211715" d="M3.734 4.342c.003.494.12 1.01.567 1.362.435.344 1.01.561 1.59.676a7.26 7.26 0 0 0 1.242.122c.384.012.768-.02 1.141-.093.857-.177 1.533-.628 2.268-1.006.322-.165.67-.32 1.05-.36.21-.014.42-.016.629-.005a25.947 25.947 0 0 0 3.288-.177 15.214 15.214 0 0 0 1.99-.354c.422-.108.871-.238 1.228-.461a.894.894 0 0 0 .312-.285.937.937 0 0 0 .088-.387 2.134 2.134 0 0 0-.065-.765c-.168-.565-.566-1.065-1.126-1.417-.827-.537-1.865-.81-2.886-.971-.746-.113-1.5-.181-2.257-.204a23.037 23.037 0 0 0-2.346.028c-1.488.1-3.04.36-4.313 1.036a5.667 5.667 0 0 0-1.73 1.404c-.328.397-.542.85-.627 1.325a3.246 3.246 0 0 0-.043.532c0 .223.419.224.419 0a3.561 3.561 0 0 1 .027-.429l.004-.032.002-.012c.036-.202.098-.4.185-.592.24-.525.693-.99 1.187-1.378 1.07-.842 2.49-1.23 3.925-1.415A18.011 18.011 0 0 1 11.575.35c.794-.012 1.587.017 2.376.086 1.1.098 2.244.294 3.192.734.178.083.35.175.512.278l.026.017.053.036a3.323 3.323 0 0 1 .297.232 3.02 3.02 0 0 1 .16.154l.019.02.035.04a2.29 2.29 0 0 1 .288.423c-.025-.046.016.036.024.053a1.7 1.7 0 0 1 .096.264c.016.059.03.117.04.176l.005.022c.004.023-.006-.037-.003-.014l.006.043a1.972 1.972 0 0 1 0 .525c-.002.019-.016.105-.006.049-.005.026-.008.053-.015.079l-.008.028c-.01.038.006-.006 0 0a.471.471 0 0 0-.038.055c-.021.03.007-.006.004-.003l-.034.031a.922.922 0 0 1-.07.056c-.012.01-.026.018-.04.028-.027.019.006-.004.01-.006l-.034.02a3.132 3.132 0 0 1-.5.225l-.035.012a9.372 9.372 0 0 1-.255.081c-.125.037-.251.07-.378.102-.294.073-.591.133-.891.185a20.7 20.7 0 0 1-2.213.255 26.82 26.82 0 0 1-1.978.056 6.057 6.057 0 0 0-.634.006c-.802.08-1.442.517-2.098.868a5.089 5.089 0 0 1-1.126.464c-.344.086-.702.13-1.062.128-.71.002-1.447-.076-2.086-.346a3.3 3.3 0 0 1-.348-.171 1.94 1.94 0 0 1-.418-.311l-.016-.018c-.018-.017.024.029.01.01l-.024-.027a.885.885 0 0 1-.079-.114c-.148-.253-.184-.558-.186-.838-.002-.223-.42-.223-.419 0Z"/>
        <path fill="#FD0" d="m14.915 17.156-.675-.882c-.255.557-.72 1.006-1.29 1.192l.615.805c.3.387.84.449 1.215.14a.908.908 0 0 0 .135-1.255Z"/>
        <path fill="#231F20" d="M11.6 17.9c-1.89 0-3.42-1.58-3.42-3.531 0-.155.12-.279.27-.279.15 0 .27.124.27.279 0 1.626 1.29 2.957 2.865 2.957 1.575 0 2.865-1.331 2.865-2.957 0-.155.12-.279.27-.279.15 0 .27.124.27.279.015 1.936-1.515 3.53-3.39 3.53Z"/>
        <path fill="#231F20" d="M14.24 18.008a.315.315 0 0 1-.225-.109l-.45-.619c-.09-.124-.075-.31.06-.403.12-.092.3-.077.39.062l.45.62c.09.124.075.31-.06.402a.295.295 0 0 1-.165.047Z"/>
        <path fill="#231F20" d="M14.24 18.89h-.135c-.3-.03-.57-.186-.765-.433l-.615-.805a.277.277 0 0 1-.045-.264.275.275 0 0 1 .18-.185c.495-.17.9-.542 1.125-1.038a.29.29 0 0 1 .225-.17.282.282 0 0 1 .255.108l.675.883a1.2 1.2 0 0 1 .24.867c-.03.31-.18.588-.42.79a1.23 1.23 0 0 1-.72.247Zm-.855-1.3.39.51a.591.591 0 0 0 .825.094.621.621 0 0 0 .21-.403.679.679 0 0 0-.12-.45l-.42-.556c-.225.34-.525.619-.885.805Zm-3.24-4.165a.503.503 0 0 0 .495-.511.503.503 0 0 0-.495-.511.503.503 0 0 0-.495.51c0 .283.222.511.495.511Zm2.985 0a.503.503 0 0 0 .495-.511.503.503 0 0 0-.495-.511.503.503 0 0 0-.495.51c0 .283.222.511.495.511Zm-.87 2.322a.273.273 0 0 1-.27-.279v-.557a.371.371 0 0 0-.36-.372.37.37 0 0 0-.36.372v.557c0 .155-.12.28-.27.28a.273.273 0 0 1-.27-.28v-.557c0-.527.405-.944.915-.944s.915.417.915.944v.557c-.03.155-.15.28-.3.28Z"/>
      </g>
      <defs>
        <clipPath id="a">
          <path fill="#fff" d="M0 0h29v24H0z"/>
        </clipPath>
      </defs>
    </symbol>
    <symbol id="beerCheers" width="30" height="30" fill="none" viewBox="0 0 30 30">
      <g clip-path="url(#a)">
        <path fill="#fff" d="M12.673 12.075c-.072-.34-.3-.694-.826-.85-.489-.144-1.026.02-1.448.307-.21.143-.539.352-.819.536-.522.344-1.152.375-1.778.498-.341.067-.696.19-.904.45-.213.266-.18.704.152.825.053-.018.107-.032.161-.041.788-.14 1.917-.26 2.557-.327a32.376 32.376 0 0 1 2.45-.146c.182-.164.322-.37.409-.598.078-.21.094-.436.046-.654Zm5.074.165c-.02.278.075.602.393.935a1.09 1.09 0 0 1 .434-.072c.845.01 1.621.04 2.29.098.625.054 1.727.15 2.498.27a1.1 1.1 0 0 1 .252.072c.25-.327.157-.76-.171-1.044-.31-.266-.732-.358-1.14-.383-.406-.025-.818.009-1.22-.047-.57-.078-1.193-.488-1.734-.676-.353-.123-.804-.162-1.16.062a1.07 1.07 0 0 0-.442.786Z"/>
        <path fill="#fff" d="M13.822 22.723a4.242 4.242 0 0 0-.007-.485c-.047-.92-.7-7.209-.826-8.205-.055-.507-.364-.722-.874-.706-.867.027-1.662.074-2.347.146-.64.068-1.768.188-2.556.327-.39.069-.716.319-.625.811.065.805.711 7.36.846 8.28.048.328.116.624.26.85.102.16.325.39.802.432.62.055 1.347.039 2.304-.062 1.01-.107 1.832-.244 2.318-.441a1.122 1.122 0 0 0 .633-.592c.041-.114.066-.234.072-.355Z"/>
        <path fill="#FFDA71" d="M12.93 22.479c-.886.329-3.737.646-4.537.522l-.812-7.045c.433-.438 1.156-.444 1.75-.282.594.161 1.191.423 1.8.338.418-.06.795-.28 1.056-.61l.744 7.077Z"/>
        <path fill="#211715" d="M14.006 22.723a7.508 7.508 0 0 0-.052-1.074c-.036-.418-.076-.835-.116-1.253a387.154 387.154 0 0 0-.33-3.275c-.093-.902-.187-1.804-.29-2.705-.046-.4-.058-.845-.419-1.103-.295-.21-.678-.171-1.02-.158-.452.017-.905.04-1.356.075a42.697 42.697 0 0 0-2.856.327 4.2 4.2 0 0 0-.52.092c-.311.088-.588.313-.645.646a.911.911 0 0 0-.008.258c-.005-.042.015.115.01.07-.002-.017 0 0 0 .003l.002.027a37.893 37.893 0 0 0 .049.53 669.538 669.538 0 0 0 .436 4.413c.093.914.186 1.828.29 2.74.042.36.071.733.174 1.082.09.306.247.583.525.753.313.191.694.199 1.05.211.845.029 1.694-.055 2.531-.166.391-.047.78-.115 1.164-.203.33-.08.665-.179.935-.394.286-.228.419-.536.446-.896a.185.185 0 0 0-.183-.184.187.187 0 0 0-.184.184 1.109 1.109 0 0 1-.069.314l-.013.026a.891.891 0 0 1-.389.38c-.264.146-.585.209-.877.268a16.2 16.2 0 0 1-2.493.295 10.13 10.13 0 0 1-1.077 0 1.866 1.866 0 0 1-.489-.073.74.74 0 0 1-.357-.25 1.068 1.068 0 0 1-.129-.248 2.98 2.98 0 0 1-.135-.594l-.008-.053.001.008-.005-.037a17.251 17.251 0 0 1-.02-.169c-.098-.81-.18-1.62-.264-2.433-.108-1.054-.215-2.11-.318-3.165-.073-.74-.147-1.478-.212-2.218-.013-.147-.053-.309-.014-.451a.416.416 0 0 1 .21-.253c.13-.063.27-.103.414-.117.718-.12 1.444-.198 2.168-.275a33.783 33.783 0 0 1 2.458-.165c.15-.014.302-.001.447.039.096.031.18.094.236.178.086.135.101.301.121.465.094.785.174 1.572.257 2.359.113 1.074.222 2.148.329 3.223.075.768.156 1.537.21 2.306.02.213.026.426.018.639-.014.237.354.236.367 0Zm-8.193-.847c.203.174.417.334.642.478a.185.185 0 0 0 .251-.066.187.187 0 0 0-.065-.251 4.904 4.904 0 0 1-.306-.212c-.025-.017-.048-.036-.072-.053a.123.123 0 0 0 .01.008l-.017-.014-.039-.03a5.531 5.531 0 0 1-.144-.119.183.183 0 1 0-.26.26Zm.158-6.087a2.619 2.619 0 0 0-.437.204.19.19 0 0 0-.084.11.188.188 0 0 0 .019.141.186.186 0 0 0 .11.085.19.19 0 0 0 .14-.019c.092-.054.188-.102.286-.143l-.044.018.108-.042a.197.197 0 0 0 .11-.085.183.183 0 0 0-.208-.27Z"/>
        <path fill="#211715" d="M12.698 22.369c-.486.178-1.016.253-1.526.322a15.88 15.88 0 0 1-1.84.149 7.277 7.277 0 0 1-.587-.013 2.937 2.937 0 0 1-.073-.007l-.034-.004c-.01 0 .036.006-.009-.001a.19.19 0 0 0-.226.128.185.185 0 0 0 .128.226c.513.078 1.047.04 1.562.001.64-.044 1.276-.125 1.906-.243a5.08 5.08 0 0 0 .796-.204.189.189 0 0 0 .129-.226.185.185 0 0 0-.226-.128Zm.106-9.591a1.339 1.339 0 0 0-.094-1.119c-.306-.538-.967-.74-1.552-.641-.69.117-1.202.64-1.796.967-.608.335-1.33.273-1.972.5-.332.119-.664.328-.775.682-.096.307.01.677.314.82a.188.188 0 0 0 .251-.065.185.185 0 0 0-.065-.251c-.171-.081-.206-.268-.134-.44.097-.23.37-.351.593-.42.297-.091.611-.125.917-.178.309-.047.61-.132.898-.252.29-.129.551-.327.815-.5.24-.156.472-.331.744-.428.47-.168 1.062-.124 1.384.295.05.07.091.147.123.228.016.046.03.094.04.142a1.248 1.248 0 0 1 .016.319l-.002.024c-.003.036.003-.018 0 .005a.976.976 0 0 1-.058.214.184.184 0 0 0 .128.226.188.188 0 0 0 .226-.129ZM7.71 16.085c.408-.4 1.059-.373 1.572-.234.693.187 1.405.504 2.13.287a1.83 1.83 0 0 0 .905-.606.19.19 0 0 0 0-.26.185.185 0 0 0-.26 0 1.494 1.494 0 0 1-.727.508c-.33.101-.674.07-1.004-.009-.647-.154-1.263-.446-1.943-.363a1.565 1.565 0 0 0-.932.418c-.168.166.091.425.26.26ZM4.351 17.79c.234-.244.474-.48.71-.723.235-.242.511-.496.65-.81a.826.826 0 0 0 .044-.61.592.592 0 0 0-.44-.394c-.227-.041-.439.06-.622.184-.196.134-.387.275-.58.413-.388.275-.778.548-1.163.827-.18.125-.348.265-.503.42-.147.16-.275.338-.38.529-.205.363-.39.738-.585 1.107-.094.18-.178.38-.326.523a4.35 4.35 0 0 1-.511.387 8.407 8.407 0 0 1-.557.369c-.203.121-.018.439.185.317.317-.194.623-.405.917-.632.16-.11.3-.25.411-.41.03-.048.057-.099.083-.15l.53-1.006c.126-.24.248-.492.425-.699.27-.316.64-.54.976-.78l1.118-.795c.131-.094.312-.262.487-.248.152.012.213.166.207.3-.007.187-.13.355-.247.491-.103.12-.212.234-.322.348-.253.262-.514.518-.766.782-.164.171.096.431.26.26Z"/>
        <path fill="#211715" d="M4.27 17.879c.578-.141 1.16-.264 1.74-.402.171-.041.456-.093.55.089.095.181.022.445-.128.577-.123.108-.022.312.13.314.17.002.228.225.232.363a.48.48 0 0 1-.283.466c-.16.077-.088.361.092.342a.263.263 0 0 1 .282.309.677.677 0 0 1-.025.095.428.428 0 0 0-.031.058.573.573 0 0 1-.246.17.184.184 0 0 0 .049.36c.127.01.185.2.17.308-.026.19-.173.26-.329.336-.163.08-.326.164-.496.227a6.242 6.242 0 0 1-.632.18c-.47.12-.95.204-1.435.253-.466.044-.954.079-1.393.255-.436.175-.765.502-1.103.816-.174.161.086.42.26.26.302-.28.6-.596.995-.743.488-.18 1.017-.193 1.528-.25.528-.068 1.05-.175 1.562-.319.208-.055.41-.129.605-.22.1-.045.197-.094.295-.142.107-.044.206-.106.294-.182a.727.727 0 0 0 .2-.675.592.592 0 0 0-.522-.47l.049.36c.314-.129.554-.341.574-.699.019-.35-.293-.692-.651-.654l.092.342a.84.84 0 0 0 .463-.827c-.029-.337-.22-.683-.597-.686l.13.313c.35-.307.406-1.041-.074-1.26-.229-.105-.482-.074-.72-.017-.269.066-.539.128-.809.188-.306.068-.612.137-.917.211-.229.056-.132.41.098.354Z"/>
        <path fill="#211715" d="M5.059 18.899c.49-.167.996-.283 1.49-.435.226-.069.13-.424-.097-.354-.495.151-1.001.268-1.491.435a.188.188 0 0 0-.128.225.185.185 0 0 0 .226.128Zm.243 1.115c.448-.135.905-.245 1.35-.392a.188.188 0 0 0 .128-.226.186.186 0 0 0-.226-.129c-.445.148-.902.258-1.35.393a.186.186 0 0 0-.11.086.184.184 0 0 0 .208.268Zm.253.943c.369-.119.742-.222 1.111-.34a.184.184 0 0 0-.098-.355c-.368.119-.742.222-1.11.341a.184.184 0 0 0 .097.354Z"/>
        <path fill="#fff" d="M17.086 22.292a4.143 4.143 0 0 1-.002-.473c.029-.897.546-7.038.652-8.011.044-.496.34-.71.838-.705.845.01 1.621.04 2.29.098.625.054 1.727.15 2.498.27.38.06.703.298.624.78-.048.785-.556 7.186-.67 8.084-.04.321-.1.611-.238.835-.095.157-.308.385-.773.435-.604.065-1.312.063-2.247-.017-.987-.085-1.79-.203-2.267-.386a1.093 1.093 0 0 1-.628-.566 1.192 1.192 0 0 1-.077-.344Z"/>
        <path fill="#FFDA71" d="M23.03 15.383c-.427.308-.816.394-1.345.388-.528-.006-1.047-.145-1.548-.315-.265-.09-.53-.19-.808-.222-.3-.028-.6.054-.842.23l-.538 6.59c.87.304 3.674.527 4.452.39l.629-7.061Z"/>
        <path fill="#211715" d="M17.27 22.292a7.238 7.238 0 0 1 .03-1.029 358.029 358.029 0 0 1 .334-4.25 304.194 304.194 0 0 1 .27-3.06c.016-.16.03-.324.115-.454a.446.446 0 0 1 .228-.168c.143-.04.292-.054.44-.043.44.006.88.018 1.319.04a39.84 39.84 0 0 1 2.13.175 25.2 25.2 0 0 1 1.096.133c.255.039.518.113.574.375.027.127-.005.277-.015.409l-.026.367-.086 1.126a611.882 611.882 0 0 1-.473 5.713c-.022.236-.042.473-.073.71-.02.187-.06.371-.12.55-.026.071-.06.14-.1.203l-.028.042a1.135 1.135 0 0 1-.047.052c-.197.203-.498.24-.783.261-.786.058-1.579.005-2.362-.074-.38-.038-.76-.084-1.135-.155-.282-.054-.592-.11-.845-.252a.944.944 0 0 1-.353-.341.795.795 0 0 1-.02-.04l-.005-.008a1.17 1.17 0 0 1-.065-.282.189.189 0 0 0-.183-.183.185.185 0 0 0-.184.183c.01.186.062.367.15.532.085.14.198.264.331.361.26.197.591.281.905.35.821.177 1.676.249 2.514.286.374.02.748.019 1.122-.001.344-.02.714-.038 1.007-.24.456-.314.532-.893.587-1.405.082-.765.142-1.533.207-2.3.089-1.063.176-2.127.26-3.19.059-.756.12-1.512.173-2.27l.008-.128.002-.026a.088.088 0 0 0-.002.01c.003-.026.008-.052.01-.078a.895.895 0 0 0-.017-.28c-.072-.318-.352-.526-.657-.6a5.144 5.144 0 0 0-.536-.081 24.242 24.242 0 0 0-.581-.07 55.242 55.242 0 0 0-1.134-.11 34.17 34.17 0 0 0-2.397-.128c-.346-.006-.708-.024-.992.208-.22.179-.286.445-.315.714-.077.734-.136 1.47-.2 2.205-.092 1.08-.182 2.16-.268 3.24-.062.789-.13 1.577-.172 2.366a4.91 4.91 0 0 0-.005.635.188.188 0 0 0 .184.184.185.185 0 0 0 .183-.184Zm7.402-1.584a4.427 4.427 0 0 1-.535.5l-.013.01a.87.87 0 0 0-.064.048 5.174 5.174 0 0 1-.107.077.183.183 0 1 0 .186.317c.29-.2.556-.432.792-.693a.184.184 0 0 0-.26-.26Zm.269-5.194a2.24 2.24 0 0 0-.328-.13.183.183 0 1 0-.098.353c.064.02.127.043.188.068l-.044-.018c.033.014.065.028.097.044.043.024.094.03.141.019a.184.184 0 0 0 .044-.335Z"/>
        <path fill="#211715" d="M18.083 22.276c.506.175 1.059.238 1.588.298.603.072 1.21.109 1.817.11.254.004.51-.013.761-.051a.185.185 0 0 0 .128-.226.188.188 0 0 0-.225-.128 2.029 2.029 0 0 1-.065.01c.043-.006-.004 0-.021.002a6.018 6.018 0 0 1-.496.026 12.74 12.74 0 0 1-.843-.021 15.187 15.187 0 0 1-1.786-.193 4.94 4.94 0 0 1-.76-.18c-.224-.078-.32.277-.098.353Zm.097-9.33c-.156-.204-.265-.432-.25-.693a.88.88 0 0 1 .294-.594c.01-.01.053-.044.023-.022a.833.833 0 0 1 .302-.134c.238-.047.483-.029.711.053.525.17.99.489 1.525.637.585.164 1.199.037 1.792.136.276.045.563.135.77.331.188.177.279.421.185.67a.185.185 0 0 0 .128.225.188.188 0 0 0 .226-.128.916.916 0 0 0-.106-.819 1.444 1.444 0 0 0-.734-.54c-.635-.228-1.308-.077-1.959-.182-.602-.098-1.12-.473-1.69-.67-.496-.172-1.136-.16-1.508.26a1.296 1.296 0 0 0-.32.703c-.03.343.075.685.293.952a.19.19 0 0 0 .251.066.185.185 0 0 0 .066-.25v-.001Zm.4 2.677c.217-.164.489-.237.76-.204.34.044.663.19.989.292.648.202 1.337.323 2.01.178a2.3 2.3 0 0 0 .96-.454.185.185 0 0 0 0-.26.188.188 0 0 0-.26 0c-.476.382-1.125.46-1.713.39a5.288 5.288 0 0 1-1.003-.24c-.328-.107-.649-.238-.994-.274a1.359 1.359 0 0 0-.935.255.19.19 0 0 0-.066.252.185.185 0 0 0 .251.066Zm7.199 2.199a.663.663 0 0 0 .501-.452.695.695 0 0 0-.184-.667c-.162-.159-.404-.216-.615-.28a3.185 3.185 0 0 0-.677-.127c-.243-.018-.482-.006-.68.15a.719.719 0 0 0-.262.553.597.597 0 0 0 .316.567c.17.083.354.137.543.158.201.033.404.058.608.078.132.021.267.03.4.026a.188.188 0 0 0 .184-.184.185.185 0 0 0-.183-.183c-.206.019-.43-.027-.634-.052a6.23 6.23 0 0 1-.384-.057.962.962 0 0 1-.387-.127c-.117-.085-.123-.247-.068-.373a.345.345 0 0 1 .268-.193c.182-.016.366-.003.544.04.174.036.345.083.512.142.167.057.305.11.348.299a.28.28 0 0 1-.248.327.185.185 0 0 0-.128.226.188.188 0 0 0 .226.129Z"/>
        <path fill="#211715" d="M25.716 17.869a.375.375 0 0 1 .278.312.37.37 0 0 1-.148.347c-.085.058-.175.05-.289.047a4.582 4.582 0 0 1-.362-.023 8.17 8.17 0 0 1-.77-.11 2.787 2.787 0 0 1-.314-.076c-.022-.008.008.003.01.005a.295.295 0 0 1-.039-.023.46.46 0 0 1-.116-.155.287.287 0 0 1-.033-.173 1.13 1.13 0 0 1 .03-.136.465.465 0 0 1 .31-.261c.224-.074.128-.429-.097-.355-.366.12-.632.43-.612.83a.783.783 0 0 0 .315.553.806.806 0 0 0 .314.118c.323.069.65.118.978.149.322.032.702.086.961-.15a.74.74 0 0 0-.318-1.253c-.227-.068-.324.287-.098.354Z"/>
        <path fill="#211715" d="M25.737 18.9a.426.426 0 0 1 .083.533l-.011.017c-.015.022.02-.023.002-.002a.582.582 0 0 1-.032.035.212.212 0 0 1-.074.058.564.564 0 0 1-.266.064 4.953 4.953 0 0 1-.867-.095c-.197-.032-.55-.05-.633-.273a.401.401 0 0 1 .006-.306.295.295 0 0 1 .211-.178c.224-.074.128-.429-.097-.354a.698.698 0 0 0-.382.262.743.743 0 0 0-.131.448.7.7 0 0 0 .177.463.961.961 0 0 0 .487.246 7.13 7.13 0 0 0 1.166.153c.289.011.569-.084.742-.324.219-.306.15-.755-.121-1.007-.173-.16-.434.099-.26.26Z"/>
        <path fill="#211715" d="M25.504 20.001c.078.057.077.175.05.256a.25.25 0 0 1-.134.152c-.224.124-.504.11-.75.074a2.939 2.939 0 0 1-.404-.086.42.42 0 0 1-.283-.207c-.094-.22.114-.342.3-.368a.185.185 0 0 0 .128-.226.188.188 0 0 0-.226-.128c-.276.039-.533.229-.58.516-.054.338.174.631.485.743.3.104.616.154.933.145.268-.008.59-.08.768-.298a.616.616 0 0 0-.101-.89.185.185 0 0 0-.252.066.187.187 0 0 0 .066.252Zm1.093-1.631-.038-.047c.027.035-.013-.017-.017-.024a2.345 2.345 0 0 1-.244-.418l-.011-.026a2.451 2.451 0 0 1-.098-.287.184.184 0 0 0-.354.098c.098.353.269.682.502.964a.184.184 0 0 0 .26 0 .189.189 0 0 0 0-.26Z"/>
        <path fill="#211715" d="M24.898 21.056c.575.299 1.234.438 1.875.496.159.005.317.028.47.07.146.052.285.122.413.208.232.15.454.315.663.495a.189.189 0 0 0 .26 0 .185.185 0 0 0 0-.26c-.472-.396-.995-.825-1.634-.867-.63-.041-1.296-.165-1.862-.46-.21-.108-.395.209-.185.318Zm.572-4.678-.017-.022c.005.006.021.028 0-.001a5.101 5.101 0 0 1-.144-.204 3.7 3.7 0 0 1-.195-.328.982.982 0 0 1-.113-.293c-.004-.022.001.006.001.009a.153.153 0 0 1 0-.03.436.436 0 0 1 .014-.071.24.24 0 0 1 .084-.122c.128-.092.29.02.397.093.155.107.304.225.456.337l.948.706c.28.208.585.412.793.699.133.197.25.404.35.62l.453.91a1.6 1.6 0 0 0 .314.47c.262.249.593.417.911.58.21.108.396-.208.186-.317-.29-.149-.6-.297-.838-.523a1.345 1.345 0 0 1-.259-.4l-.465-.935a3.463 3.463 0 0 0-.48-.773c-.264-.299-.611-.523-.93-.76l-1.008-.75c-.291-.216-.672-.517-1.035-.259a.633.633 0 0 0-.259.495.948.948 0 0 0 .115.403c.124.26.279.503.462.725a.185.185 0 0 0 .26 0 .188.188 0 0 0 0-.26ZM14.604 5.795c.058.617.134 1.232.2 1.848.014.127.028.254.04.382a.188.188 0 0 0 .184.183.185.185 0 0 0 .184-.183c-.06-.63-.137-1.257-.205-1.886l-.036-.344a.189.189 0 0 0-.184-.184.185.185 0 0 0-.183.184Zm-3.353 1.217c.445.616.896 1.228 1.353 1.836a.189.189 0 0 0 .25.066.184.184 0 0 0 .067-.252c-.456-.608-.907-1.22-1.353-1.836a.19.19 0 0 0-.251-.066.185.185 0 0 0-.066.252Zm6.877-.824c-.324.687-.654 1.372-.991 2.054a.188.188 0 0 0 .066.25.185.185 0 0 0 .251-.065c.335-.682.666-1.367.991-2.054a.188.188 0 0 0-.066-.251.185.185 0 0 0-.25.066h-.001Z"/>
        <path fill="#fff" d="M22.544 16.877a.595.595 0 0 0-.459.092.574.574 0 0 0-.234.462.591.591 0 0 0 1.072.362.613.613 0 0 0 .079-.503.592.592 0 0 0-.458-.413Zm-1.222 1.597a.43.43 0 0 0-.33.066.412.412 0 0 0-.17.334.427.427 0 0 0 .774.26.442.442 0 0 0 .057-.363.429.429 0 0 0-.33-.297Z"/>
        <path fill="#211715" d="M22.592 16.7c-.341-.063-.706.08-.852.41a.811.811 0 0 0 .133.866.776.776 0 0 0 1.198-.078.762.762 0 0 0 .137-.46.78.78 0 0 0-.616-.738.184.184 0 0 0-.097.355.681.681 0 0 1 .107.031c-.033-.012-.007-.003 0 .001.023.013.046.025.068.04a.681.681 0 0 1 .027.018c-.032-.023.009.009.012.012a.6.6 0 0 1 .055.058c-.022-.026.012.02.018.03a.555.555 0 0 1 .02.036c.004.007.018.04.006.01a.575.575 0 0 1 .032.121c-.003-.031 0 .01 0 .017a.655.655 0 0 1-.002.084c.003-.029 0 .002 0 .007l-.011.046-.014.044c-.01.034.007-.008-.01.026a.8.8 0 0 1-.043.072c-.018.026.028-.028-.008.01l-.023.025-.024.023c-.035.036.017-.01-.007.007a.766.766 0 0 1-.077.046c-.007.003-.032.012-.001 0l-.031.012c-.026.008-.053.014-.08.02-.008.001-.035.003 0 0l-.034.003a.687.687 0 0 1-.093-.001c-.01 0-.046-.007-.01 0a.607.607 0 0 1-.071-.018c-.01-.003-.042-.016-.008-.002a.525.525 0 0 1-.1-.057c-.013-.017-.034-.032-.05-.048l-.02-.023c.025.028.003.003-.003-.005-.012-.02-.025-.039-.036-.06l-.014-.027c-.018-.037.006.023-.005-.013l-.021-.075-.006-.03c.008.038 0 .004 0-.007a.638.638 0 0 1 0-.108c-.003.038.003-.011.005-.02a.553.553 0 0 1 .01-.042l.012-.035.012-.026a.469.469 0 0 1 .045-.074c-.02.028.014-.014.016-.015a.403.403 0 0 1 .024-.025c.006-.005.042-.031.017-.014a.676.676 0 0 1 .052-.032c.004-.003.052-.025.027-.015.03-.011.06-.02.092-.027.035-.008.016-.003.007-.002a.509.509 0 0 1 .139.002.184.184 0 0 0 .097-.354Zm-1.221 1.597a.648.648 0 0 0-.422.055.556.556 0 0 0-.25.264.639.639 0 0 0 .103.687.611.611 0 0 0 .941-.062.602.602 0 0 0-.031-.736.615.615 0 0 0-.341-.208.184.184 0 0 0-.098.354c.02.004.038.01.056.015l.021.008c-.038-.01-.024-.011-.012-.005.017.01.034.018.05.029.006.004.012.01.019.013-.037-.02-.014-.01-.002 0a.732.732 0 0 1 .04.043l-.007-.01.012.02.015.027c.016.031.005-.004-.001-.006.007.002.016.053.018.062a.115.115 0 0 1 .005.026c.004-.042-.002-.016-.002-.001a.285.285 0 0 0-.001.06c-.007-.007.007-.034 0-.008l-.007.033-.01.033c-.01.035.017-.03-.002.006l-.031.052c-.013.022.03-.032.002-.003l-.016.017-.018.017c-.027.028.026-.016.005-.003a1.043 1.043 0 0 1-.056.033c-.014.008-.021.001.012-.004a.192.192 0 0 0-.022.007c-.02.007-.039.01-.058.015-.015.004-.024-.004.013-.002l-.024.002a.5.5 0 0 1-.067 0c-.022-.002-.025-.013.006.001a.525.525 0 0 1-.05-.013c-.028-.009-.008-.013.005.004-.006-.009-.03-.014-.04-.02a.52.52 0 0 1-.021-.013c-.01-.013-.025-.023-.036-.035a.116.116 0 0 0-.015-.016c.017.003.022.032.006.006l-.026-.043-.01-.02c-.017-.032.011.037.002.003-.006-.018-.012-.035-.016-.054a.107.107 0 0 0-.004-.022c.012.015.004.04.002.01a.443.443 0 0 1-.002-.067l.003-.012a.547.547 0 0 1 .008-.031c.002-.006.01-.048.005-.02-.005.027.003-.006.007-.012a.458.458 0 0 1 .035-.054.487.487 0 0 1 .037-.034l-.017.014c.004-.008.03-.02.037-.023l.013-.007c.018-.009.017-.008-.005.001a.206.206 0 0 1 .066-.02c.035-.008-.005 0-.008 0a.122.122 0 0 1 .04-.002l.035.001c.05.003-.027-.006.011.002a.184.184 0 0 0 .098-.355Z"/>
        <path fill="#fff" d="M11.627 20.04a.464.464 0 0 1 .359.066.446.446 0 0 1 .19.357.46.46 0 0 1-.831.297.478.478 0 0 1-.069-.39.462.462 0 0 1 .351-.33Z"/>
        <path fill="#211715" d="M11.676 20.218c.002 0 .049-.007.019-.004-.03.003.018 0 .02 0a.144.144 0 0 1 .058 0l-.02-.002a.447.447 0 0 1 .058.013l.03.009c-.037-.01.002.001.012.006a.423.423 0 0 1 .034.02c.013.008.036.012.002 0 .014.005.028.026.039.037.002.002.027.036.011.013l.009.014a.386.386 0 0 1 .018.029l.019.058c.002.007.01.027.007.033a.591.591 0 0 1-.002.08s.008-.046 0 0a.501.501 0 0 1-.025.082s.02-.042.004-.01a.634.634 0 0 1-.042.071c.002.001.029-.033-.001 0a.445.445 0 0 1-.034.034c-.002.003-.032.029-.009.009.024-.02-.007.004-.01.007l-.042.024c-.035.02.029-.01.004-.002-.012.004-.023.009-.036.012l-.03.008c-.036.009.008 0 .009-.001a.188.188 0 0 1-.066.003c-.013 0-.042.004-.052-.003l.023.003a.422.422 0 0 1-.057-.013l-.03-.01c-.022-.006-.002-.01.008.004-.007-.01-.039-.02-.05-.027-.01-.008-.035-.014.001.002a.112.112 0 0 1-.02-.016l-.018-.019c-.014-.014-.026-.024-.006-.003a.278.278 0 0 1-.038-.061.22.22 0 0 1-.013-.026c.014.038.004.005 0-.005-.002-.006-.021-.056-.016-.063-.003.004.002.033.001.005l-.001-.044.001-.036a.218.218 0 0 1 .024-.08c-.002.002-.018.036-.002.007l.019-.034.014-.02c.02-.034-.023.022.002-.003.01-.01.039-.05.055-.052-.002 0-.037.025-.008.006l.032-.02a.385.385 0 0 1 .021-.012l.023-.01-.021.008c.004-.01.062-.019.071-.021a.185.185 0 0 0 .128-.226.188.188 0 0 0-.226-.128.642.642 0 0 0-.147 1.2.66.66 0 0 0 .721-.103.669.669 0 0 0 .181-.667.626.626 0 0 0-.268-.355.664.664 0 0 0-.486-.075.185.185 0 0 0-.129.226.188.188 0 0 0 .227.128Z"/>
      </g>
      <defs>
        <clipPath id="a">
          <path fill="#fff" d="M0 0h30v30H0z"/>
        </clipPath>
      </defs>
    </symbol>
      <symbol id="close" width="30" height="30" fill="currentColor" viewBox="0 0 30 30">
      <path fill="currentColor" d="M25.932 4.16a1.25 1.25 0 0 0-1.768 0l-9.118 9.119L5.928 4.16a1.25 1.25 0 1 0-1.767 1.767l9.118 9.118-9.118 9.118a1.25 1.25 0 0 0 1.767 1.768l9.118-9.118 9.118 9.118a1.25 1.25 0 1 0 1.768-1.768l-9.118-9.118 9.118-9.118a1.25 1.25 0 0 0 0-1.767Z"/>
    </symbol>
     <symbol id="trash" width="30" height="30" fill="none" viewBox="0 0 30 30">
      <path stroke="#464455" stroke-linecap="round" stroke-linejoin="round" stroke-width="1.5" d="M6.25 8.466h5.25m0 0V6.875c0-.69.56-1.25 1.25-1.25h4.5c.69 0 1.25.56 1.25 1.25v1.59m-7 0h7m5.25 0H18.5M8 10.74v9.09c0 2.143 0 3.215.683 3.88.684.666 1.784.666 3.984.666h4.666c2.2 0 3.3 0 3.984-.666.683-.665.683-1.737.683-3.88v-9.09m-10.5 2.27v6.819M15 13.01v6.819m3.5-6.819v6.819"/>
    </symbol>
    <symbol id="edit" width="30" height="30" fill="currentColor" viewBox="0 0 30 30">
      <path fill="currentColor" d="M29.044 13.688h-2.175v11.906H3.13V6.15H15v-2.4H3.131a2.269 2.269 0 0 0-2.193 2.4v19.444a2.269 2.269 0 0 0 2.193 2.343H26.87a2.268 2.268 0 0 0 2.194-2.343l-.02-11.907Z"/>
      <path fill="currentColor" d="m19.8 5.381-8.138 8.156-.825.825-.15.15-2.85 5.925a2.025 2.025 0 0 0 2.72 2.72l5.887-2.87.994-.993.806-.806 8.137-8.175.844-.825.469-.47a4.087 4.087 0 0 0 0-5.774 4.069 4.069 0 0 0-2.869-1.182 4.106 4.106 0 0 0-2.887 1.182l-1.313 1.293-.844.825.019.02Zm-9.469 15.244 2.213-4.556 2.343 2.362-4.556 2.194Zm3.75-6.3 7.313-7.331L23.83 9.45l-7.237 7.425-2.513-2.55Zm10.65-9.956a1.706 1.706 0 0 1 1.219.506 1.744 1.744 0 0 1 0 2.456l-.469.45-2.437-2.437.468-.469a1.65 1.65 0 0 1 1.294-.469l-.075-.037Z"/>
    </symbol>
  </defs>
</svg>
