<svg xmlns="http://www.w3.org/2000/svg" style="display: none;">
  <defs>
    <symbol id="home" width="30" height="30" fill="currentColor" viewBox="0 0 30 30">
      <path fill="currentColor" d="M1.875 11.25v16.875h9.375v-7.5a3.75 3.75 0 1 1 7.5 0v7.5h9.375V11.25L15 0 1.875 11.25Z"/>
    </symbol>
    <symbol id="calendar" width="30" height="30" fill="currentColor" viewBox="0 0 30 30">
      <g clip-path="url(#a)">
        <path fill="currentColor" d="M28.125 2.81h-7.507V.94a.937.937 0 1 0-1.875 0v1.87h-7.5V.94a.937.937 0 1 0-1.875 0v1.868H1.875A1.877 1.877 0 0 0 0 4.684V28.12c0 1.036.84 1.875 1.875 1.875h26.25c1.035 0 1.875-.84 1.875-1.875V4.684c0-1.035-.84-1.875-1.875-1.875Zm0 25.311H1.875V4.684h7.493v.944a.937.937 0 1 0 1.875 0v-.944h7.5v.945a.937.937 0 1 0 1.875 0v-.945h7.507v23.437Zm-6.563-13.124h1.875c.518 0 .938-.42.938-.938v-1.875a.938.938 0 0 0-.938-.937h-1.875a.938.938 0 0 0-.937.937v1.875c0 .518.42.938.938.938Zm0 7.5h1.875c.518 0 .938-.42.938-.938v-1.875a.938.938 0 0 0-.938-.938h-1.875a.938.938 0 0 0-.937.938v1.875c0 .518.42.937.938.937Zm-5.625-3.75h-1.874a.938.938 0 0 0-.938.937v1.875c0 .518.42.937.938.937h1.874c.518 0 .938-.42.938-.937v-1.875a.938.938 0 0 0-.938-.938Zm0-7.5h-1.874a.938.938 0 0 0-.938.937v1.875c0 .518.42.938.938.938h1.874c.518 0 .938-.42.938-.938v-1.875a.938.938 0 0 0-.938-.937Zm-7.5 0H6.563a.938.938 0 0 0-.938.937v1.875c0 .518.42.938.938.938h1.875c.517 0 .937-.42.937-.938v-1.875a.938.938 0 0 0-.938-.937Zm0 7.5H6.563a.938.938 0 0 0-.938.937v1.875c0 .518.42.937.938.937h1.875c.517 0 .937-.42.937-.937v-1.875a.938.938 0 0 0-.938-.938Z"/>
      </g>
      <defs>
        <clipPath id="a">
          <path fill="currentColor" d="M0 0h30v30H0z"/>
        </clipPath>
      </defs>
    </symbol>
    <symbol id="food" width="30" height="30" fill="currentColor" viewBox="0 0 30 30">
      <path fill="currentColor" d="M19.313 12c.187.188.468.281.656.281.187 0 .468-.094.656-.281l5.063-5.063a.906.906 0 0 0 0-1.312.906.906 0 0 0-1.313 0l-5.063 5.063a.906.906 0 0 0 0 1.312Z"/>
      <path fill="currentColor" d="M28.219 9.469a.906.906 0 0 0 0-1.313.906.906 0 0 0-1.313 0l-4.593 4.594c-1.22 1.219-2.344 1.875-3.47 1.875-.187 0-.468 0-.655.094l-1.594-1.594c0-.188.093-.469.093-.656.094-1.031.75-2.25 1.875-3.469l4.594-4.594a.906.906 0 0 0 0-1.312.906.906 0 0 0-1.312 0L17.25 7.688c-1.219 1.218-1.969 2.53-2.344 3.75L6.75 3.28a.906.906 0 0 0-1.313 0C2.72 6 2.72 10.5 5.438 13.312l7.782 7.782c.281.281.656.375 1.031.187 1.031-.468 2.25-.187 3 .75l3.844 4.782c.562.75 1.406 1.125 2.343 1.218h.188c.844 0 1.688-.375 2.344-.937.656-.657.937-1.407.937-2.344 0-.938-.375-1.688-.937-2.344l-6.094-6.093c1.219-.282 2.531-1.032 3.75-2.344l4.594-4.5ZM4.406 22.688C3.75 23.25 3.281 24 3.188 24.843c-.094.843.28 1.687.843 2.343.563.657 1.313.938 2.157.938h.187c.844-.094 1.688-.469 2.156-1.125L12 22.687l-3.375-3.375-4.219 3.375Z"/>
    </symbol>
    <symbol id="beer" width="30" height="30" fill="currentColor" viewBox="0 0 30 30">
      <path fill="currentColor" d="M6.35 25.132c0 .657.533 1.193 1.19 1.193h8.18c.657 0 1.192-.536 1.192-1.193v-9.277H6.35v9.277Z"/>
      <path fill="currentColor" d="M27.122 12.607a5.172 5.172 0 0 0-3.695-1.52 5.664 5.664 0 0 0-1.634.246 4.698 4.698 0 0 0 .751-2.55c0-1.79-.986-3.347-2.445-4.156A6.307 6.307 0 0 0 11 .772 4.47 4.47 0 0 0 8.625.098a4.543 4.543 0 0 0-4.431 3.555A4.475 4.475 0 0 0 1.357 7.82c0 1.244.503 2.366 1.312 3.175v14.139A4.867 4.867 0 0 0 7.542 30h8.181a4.866 4.866 0 0 0 4.866-4.866v-2.102c.234.024.466.036.705.036 1.545 0 3.144-.46 4.499-1.403a6.672 6.672 0 0 0 1.765-1.777 6.464 6.464 0 0 0 .999-2.5 6.38 6.38 0 0 0 .086-1.018c0-1.47-.57-2.807-1.52-3.763ZM18.75 25.134a3.034 3.034 0 0 1-3.027 3.027H7.542a3.035 3.035 0 0 1-3.034-3.027V12.276H18.75v12.858Zm1.435-14.697H5.39a2.595 2.595 0 0 1-1.415-.735 2.635 2.635 0 0 1-.779-1.882c0-1.25.87-2.298 2.035-2.58l.643-.153.056-.662a2.706 2.706 0 0 1 2.696-2.488c.668 0 1.27.238 1.74.637l.54.454.576-.399a4.4 4.4 0 0 1 2.537-.79 4.47 4.47 0 0 1 4.382 3.597l.099.479.44.189a2.91 2.91 0 0 1 1.245 4.333Zm5.95 6.54a3.846 3.846 0 0 1-.612 1.544c-.442.662-1.091 1.189-1.845 1.55a5.543 5.543 0 0 1-2.384.546c-.245 0-.478-.012-.705-.049v-5.774c.264-.239.521-.434.773-.6.753-.478 1.446-.656 2.065-.656.791 0 1.465.3 1.955.797.497.496.81 1.19.81 2.035 0 .196-.02.398-.056.607Z"/>
    </symbol>
    <symbol id="return" width="30" height="30" fill="currentColor" viewBox="0 0 30 30">
      <g clip-path="url(#a)">
        <path fill="currentColor" d="M6.25 13.75V15c0 4.825 3.925 8.75 8.75 8.75s8.75-3.925 8.75-8.75S19.825 6.25 15 6.25h-2.5V2.5l-5 5 5 5V8.75H15A6.257 6.257 0 0 1 21.25 15 6.257 6.257 0 0 1 15 21.25 6.257 6.257 0 0 1 8.75 15v-1.25h-2.5Z"/>
      </g>
      <defs>
        <clipPath id="a">
          <path fill="currentColor" d="M0 0h30v30H0z"/>
        </clipPath>
      </defs>
    </symbol>
    <symbol id="back" width="30" height="25" fill="currentColor" viewBox="0 0 30 25">
      <path fill="currentColor" d="M6.563 11.719h18.75c.248 0 .487.082.662.229a.722.722 0 0 1 .275.552.722.722 0 0 1-.275.552 1.04 1.04 0 0 1-.663.23H6.563a1.04 1.04 0 0 1-.662-.23.722.722 0 0 1-.275-.552.72.72 0 0 1 .275-.552 1.04 1.04 0 0 1 .662-.23Z"/>
      <path fill="currentColor" d="m6.95 12.5 7.776 6.478a.723.723 0 0 1 .275.553.723.723 0 0 1-.275.553c-.176.147-.415.23-.664.23a1.04 1.04 0 0 1-.663-.23l-8.438-7.03a.787.787 0 0 1-.204-.255.67.67 0 0 1 0-.598.79.79 0 0 1 .204-.254L13.4 4.916c.176-.147.415-.23.664-.23.248 0 .487.083.663.23a.723.723 0 0 1 .275.553.723.723 0 0 1-.275.553L6.951 12.5Z"/>
    </symbol>
     <symbol id="arrow" width="30" height="30" fill="none" viewBox="0 0 30 30">
      <path stroke="currentColor" stroke-linecap="round" stroke-linejoin="round" stroke-width="2" d="M8.75 12.5 15 18.75l6.25-6.25"/>
    </symbol>
  </defs>
</svg>
